<?xml version="1.0" standalone="no"?>
<!DOCTYPE svg PUBLIC "-//W3C//DTD SVG 20010904//EN"
 "http://www.w3.org/TR/2001/REC-SVG-20010904/DTD/svg10.dtd">
<svg version="1.0" xmlns="http://www.w3.org/2000/svg"
 width="671.000000pt" height="374.000000pt" viewBox="0 0 671.000000 374.000000"
 preserveAspectRatio="xMidYMid meet">
<metadata>
Created by potrace 1.15, written by Peter Selinger 2001-2017
</metadata>
<g transform="translate(0.000000,374.000000) scale(0.100000,-0.100000)"
fill="#000000" stroke="none">
<path d="M1180 3080 c0 -6 -27 -213 -60 -461 -33 -248 -60 -457 -60 -465 0
-11 18 -14 89 -14 l89 0 6 28 c3 15 13 83 21 152 25 194 43 243 105 275 43 22
116 19 140 -5 26 -26 26 -71 0 -264 -28 -207 -36 -186 70 -186 54 0 90 4 90
10 0 6 12 99 26 208 15 113 24 219 21 249 -11 103 -76 153 -200 153 -82 0
-127 -14 -177 -57 l-32 -27 6 30 c9 44 46 333 46 360 0 24 -2 24 -90 24 -55 0
-90 -4 -90 -10z"/>
<path d="M2707 2933 c-3 -5 -8 -39 -12 -78 -11 -118 -9 -115 -70 -115 -30 0
-56 -3 -58 -7 -2 -5 -7 -36 -11 -70 l-7 -63 56 0 c37 0 55 -4 55 -12 0 -12
-24 -197 -94 -738 l-32 -245 89 -3 c49 -1 91 -1 92 0 3 3 87 642 117 888 l13
105 58 3 c64 3 63 2 71 85 l6 57 -56 0 -57 0 6 59 c4 33 9 78 13 100 l7 41
-91 0 c-50 0 -93 -3 -95 -7z"/>
<path d="M2013 2745 c-55 -24 -118 -91 -149 -158 -23 -50 -29 -80 -32 -157 -2
-52 1 -113 7 -135 15 -55 56 -116 99 -145 32 -23 46 -25 137 -25 97 0 103 1
139 29 35 26 38 27 31 7 -6 -20 -4 -21 87 -21 l94 0 37 293 c21 160 38 295 37
300 0 4 -40 7 -90 7 -89 0 -90 0 -90 -24 0 -36 -14 -39 -41 -9 -13 14 -38 32
-56 39 -42 18 -169 17 -210 -1z m217 -150 c47 -24 63 -67 58 -151 -8 -116 -57
-174 -148 -174 -52 0 -93 24 -116 65 -13 25 -16 48 -12 103 6 79 32 133 76
157 35 19 106 19 142 0z"/>
<path d="M65 2468 c34 -150 65 -285 68 -300 7 -28 8 -28 97 -28 l90 0 14 33
c8 17 50 110 94 205 l81 174 6 -45 c4 -24 17 -116 28 -203 l22 -159 90 -3 90
-2 153 293 c83 162 152 297 152 301 0 3 -45 6 -100 6 l-100 0 -41 -87 c-23
-49 -63 -137 -90 -198 -38 -87 -49 -103 -49 -78 0 30 -35 294 -45 341 -5 21
-10 22 -99 22 l-93 0 -78 -185 c-75 -176 -95 -211 -95 -164 0 12 -14 95 -31
185 l-32 164 -97 0 -96 0 61 -272z"/>
<path d="M3071 2527 c-49 -28 -64 -92 -36 -147 19 -37 43 -50 95 -50 60 0 100
41 100 104 0 62 -30 96 -90 102 -27 3 -54 -1 -69 -9z"/>
<path d="M3626 2216 c-21 -8 -55 -28 -76 -45 l-39 -31 6 35 6 35 -86 0 -85 0
-6 -37 c-3 -21 -19 -144 -36 -273 -17 -129 -33 -250 -35 -267 l-6 -33 90 0 90
0 6 33 c3 17 14 99 25 180 21 155 44 228 78 246 33 18 87 13 107 -9 22 -25 22
-69 -5 -264 -28 -207 -36 -186 70 -186 50 0 90 4 90 9 0 37 44 327 55 368 18
63 52 93 105 93 76 0 81 -27 50 -270 -29 -222 -36 -200 68 -200 l88 0 29 220
c17 136 25 236 21 261 -13 83 -62 132 -144 145 -62 10 -125 -12 -180 -61 l-48
-43 -22 34 c-40 61 -138 89 -216 60z"/>
<path d="M4585 2217 c-27 -7 -61 -19 -74 -26 -45 -25 -113 -95 -139 -146 -25
-46 -27 -60 -27 -165 0 -107 2 -118 27 -162 57 -96 147 -142 279 -141 102 0
167 24 231 82 l51 47 -62 53 -62 54 -27 -25 c-50 -46 -75 -58 -125 -58 -80 0
-137 43 -137 102 l0 28 226 0 227 0 -5 83 c-7 131 -58 216 -156 259 -54 24
-163 31 -227 15z m153 -141 c27 -14 45 -40 57 -83 l6 -23 -135 0 c-75 0 -136
4 -136 9 0 4 10 23 23 42 41 61 125 86 185 55z"/>
<path d="M3005 2188 c-4 -21 -75 -566 -75 -581 0 -4 40 -7 90 -7 85 0 90 1 94
23 3 12 19 132 36 267 17 135 34 262 37 283 l6 37 -92 0 c-86 0 -91 -1 -96
-22z"/>
<path d="M1672 1343 c-65 -32 -92 -94 -114 -255 l-12 -88 -52 0 c-29 0 -55 -3
-57 -7 -2 -5 -7 -36 -11 -70 l-7 -63 51 0 c61 0 59 19 25 -234 -14 -104 -25
-197 -25 -208 0 -16 9 -18 90 -18 50 0 90 1 90 3 0 2 14 104 30 227 17 123 30
225 30 227 0 2 31 3 69 3 39 0 72 3 74 8 3 4 8 35 12 70 l7 62 -72 0 -71 0 6
58 c4 31 14 73 23 92 14 30 23 35 54 38 23 2 47 -3 60 -12 12 -9 28 -16 34
-16 9 0 25 89 29 164 1 33 -204 48 -263 19z"/>
<path d="M6305 1297 c-82 -32 -134 -83 -161 -159 -27 -76 -25 -78 71 -78 82 0
85 1 91 25 10 40 59 75 105 75 97 0 121 -119 39 -194 -36 -33 -62 -42 -135
-48 -32 -3 -34 -9 -58 -195 l-5 -43 88 0 c97 0 100 2 100 78 0 18 6 34 13 36
77 22 117 44 158 85 56 58 73 111 67 215 -4 96 -37 148 -117 189 -48 23 -66
27 -140 26 -47 0 -100 -6 -116 -12z"/>
<path d="M2084 1000 c-71 -28 -137 -89 -171 -158 -26 -52 -28 -67 -28 -168 0
-106 1 -113 30 -159 37 -59 101 -110 158 -126 24 -6 83 -9 137 -7 108 5 171
30 236 95 76 75 114 230 85 340 -18 67 -69 133 -131 167 -50 28 -64 31 -160
33 -86 3 -114 -1 -156 -17z m232 -184 c31 -31 34 -40 34 -91 0 -107 -59 -175
-153 -175 -91 0 -132 43 -132 135 1 99 66 165 162 165 49 0 59 -4 89 -34z"/>
<path d="M2952 1003 c-18 -8 -44 -29 -58 -46 l-26 -30 7 37 7 37 -93 -3 -93
-3 -38 -285 c-20 -157 -37 -291 -38 -297 0 -10 24 -13 90 -13 105 0 91 -20
115 175 26 212 69 273 187 263 l55 -4 12 63 c6 34 14 76 17 93 l7 30 -59 0
c-34 0 -73 -7 -92 -17z"/>
<path d="M6239 561 c-24 -24 -29 -38 -29 -76 0 -38 5 -52 29 -76 25 -24 38
-29 78 -29 92 1 140 79 98 160 -20 38 -43 50 -100 50 -38 0 -52 -5 -76 -29z"/>
<path d="M3470 290 l0 -150 1135 0 1135 0 0 150 0 150 -1135 0 -1135 0 0 -150z"/>
</g>
</svg>
